<?xml version="1.0" encoding="UTF-8"?>
<svg version="1.1" xmlns="http://www.w3.org/2000/svg" width="32" height="32">
<path d="M0 0 C1.051875 -0.00515625 2.10375 -0.0103125 3.1875 -0.015625 C4.280625 -0.00015625 5.37375 0.0153125 6.5 0.03125 C8.1396875 0.00804688 8.1396875 0.00804688 9.8125 -0.015625 C10.864375 -0.01046875 11.91625 -0.0053125 13 0 C14.43859375 0.00676758 14.43859375 0.00676758 15.90625 0.01367188 C19.3011717 0.69112237 20.46832431 1.75266926 22.5 4.53125 C23.01757812 7.125 23.01757812 7.125 23.03125 10.03125 C23.03898437 11.6090625 23.03898437 11.6090625 23.046875 13.21875 C23.03140625 14.311875 23.0159375 15.405 23 16.53125 C23.01546875 17.624375 23.0309375 18.7175 23.046875 19.84375 C23.04171875 20.895625 23.0365625 21.9475 23.03125 23.03125 C23.02673828 23.9903125 23.02222656 24.949375 23.01757812 25.9375 C22.34012763 29.3324217 21.27858074 30.49957431 18.5 32.53125 C15.90625 33.04882812 15.90625 33.04882812 13 33.0625 C11.948125 33.06765625 10.89625 33.0728125 9.8125 33.078125 C8.719375 33.06265625 7.62625 33.0471875 6.5 33.03125 C5.406875 33.04671875 4.31375 33.0621875 3.1875 33.078125 C2.135625 33.07296875 1.08375 33.0678125 0 33.0625 C-0.9590625 33.05798828 -1.918125 33.05347656 -2.90625 33.04882812 C-6.3011717 32.37137763 -7.46832431 31.30983074 -9.5 28.53125 C-10.01757812 25.9375 -10.01757812 25.9375 -10.03125 23.03125 C-10.03640625 21.979375 -10.0415625 20.9275 -10.046875 19.84375 C-10.03140625 18.750625 -10.0159375 17.6575 -10 16.53125 C-10.01546875 15.438125 -10.0309375 14.345 -10.046875 13.21875 C-10.03914062 11.6409375 -10.03914062 11.6409375 -10.03125 10.03125 C-10.02673828 9.0721875 -10.02222656 8.113125 -10.01757812 7.125 C-8.88515929 1.45008601 -5.39576194 0.02538329 0 0 Z " fill="#4760FE" transform="translate(9.5,-0.53125)"/>
<path d="M0 0 C1.32 0 2.64 0 4 0 C4 5.94 4 11.88 4 18 C2.68 17.67 1.36 17.34 0 17 C0 11.39 0 5.78 0 0 Z " fill="#DFE3FD" transform="translate(8,7)"/>
<path d="M0 0 C0.66 0 1.32 0 2 0 C2 5.28 2 10.56 2 16 C1.01 16 0.02 16 -1 16 C-1.02685095 13.52076199 -1.04676547 11.0418116 -1.0625 8.5625 C-1.07506836 7.50192383 -1.07506836 7.50192383 -1.08789062 6.41992188 C-1.09653588 4.61306441 -1.05220011 2.80612397 -1 1 C-0.67 0.67 -0.34 0.34 0 0 Z " fill="#C3CBFE" transform="translate(22,9)"/>
<path d="M0 0 C0.99 0 1.98 0 3 0 C3 3.63 3 7.26 3 11 C2.01 11 1.02 11 0 11 C0 7.37 0 3.74 0 0 Z " fill="#EAEDFE" transform="translate(15,14)"/>
</svg>
